# MagicaVoxel @ Ephtracy

# group
o 

# material
mtllib персонаж.mtl
usemtl palette

# normals
vn -1 0 0
vn 1 0 0
vn 0 0 1
vn 0 0 -1
vn 0 -1 0
vn 0 1 0

# texcoords
vt 0.00195313 0.5
vt 0.0878906 0.5
vt 0.0917969 0.5
vt 0.115234 0.5
vt 0.974609 0.5
vt 0.982422 0.5

# verts
v 0.5 2.6 -1.1
v 0.5 2.6 -1.3
v 0.5 2.7 -1.1
v 0.5 2.7 -1.3
v 0.5 2.8 -1.1
v 0.5 2.8 -1.3
v 0.5 3.1 -1.1
v 0.5 3.1 -1.3
v 0.5 3.2 -1.1
v 0.5 3.2 -1.3
v 0.6 3.5 -1.2
v 0.6 3.5 -1.3
v 0.6 3.6 -1
v 0.6 3.6 -1.2
v 0.6 3.7 -1
v 0.6 3.7 -1.2
v 0.6 3.8 -1.2
v 0.6 3.8 -1.3
v 0.7 2 -1
v 0.7 2 -1.1
v 0.7 2 -1.2
v 0.7 2 -1.3
v 0.7 2.1 -1
v 0.7 2.1 -1.1
v 0.7 2.1 -1.2
v 0.7 2.1 -1.3
v 0.7 2.2 -1.1
v 0.7 2.2 -1.3
v 0.7 2.3 -1.1
v 0.7 2.3 -1.2
v 0.7 2.3 -1.3
v 0.7 2.4 -1.1
v 0.7 2.4 -1.2
v 0.7 2.4 -1.3
v 0.7 2.5 -1.1
v 0.7 2.5 -1.3
v 0.7 2.6 -1.1
v 0.7 2.6 -1.3
v 0.7 2.7 -1.3
v 0.7 2.7 -1.5
v 0.7 2.8 -1.3
v 0.7 2.8 -1.5
v 0.7 2.9 -1.3
v 0.7 2.9 -1.5
v 0.7 3 -1.3
v 0.7 3.1 -1.3
v 0.7 3.1 -1.4
v 0.7 3.1 -1.5
v 0.7 3.2 -1.3
v 0.7 3.2 -1.4
v 0.7 3.3 -1.1
v 0.7 3.3 -1.3
v 0.7 3.5 -1
v 0.7 3.5 -1.1
v 0.7 3.5 -1.2
v 0.7 3.5 -1.3
v 0.7 3.6 -1
v 0.7 3.6 -1.1
v 0.7 3.6 -1.2
v 0.7 3.6 -1.3
v 0.7 3.6 -1.4
v 0.7 3.7 -1.1
v 0.7 3.7 -1.2
v 0.7 3.7 -1.3
v 0.7 3.7 -1.4
v 0.7 3.8 -1.1
v 0.7 3.8 -1.2
v 0.8 3.1 -1.4
v 0.8 3.1 -1.5
v 0.8 3.2 -1.1
v 0.8 3.2 -1.2
v 0.8 3.2 -1.3
v 0.8 3.2 -1.4
v 0.8 3.2 -1.5
v 0.8 3.3 -1.1
v 0.8 3.3 -1.3
v 0.8 3.4 -1
v 0.8 3.4 -1.1
v 0.8 3.5 -1
v 0.8 3.5 -1.1
v 0.8 3.7 -1
v 0.8 3.7 -1.1
v 0.8 3.8 -1
v 0.8 3.8 -1.1
v 0.9 3.7 -1.3
v 0.9 3.7 -1.4
v 0.9 3.8 -1
v 0.9 3.8 -1.1
v 0.9 3.8 -1.3
v 0.9 3.8 -1.4
v 0.9 3.9 -1
v 0.9 3.9 -1.3
v 1 2 -1
v 1 2 -1.1
v 1 2 -1.2
v 1 2 -1.3
v 1 2.1 -1
v 1 2.1 -1.1
v 1 2.1 -1.2
v 1 2.1 -1.3
v 1 2.2 -1.1
v 1 2.2 -1.3
v 1 2.3 -1.1
v 1 2.3 -1.2
v 1 2.3 -1.3
v 1 2.4 -1.1
v 1 2.4 -1.2
v 1 2.5 -1.1
v 1 2.5 -1.3
v 1 2.7 -1.3
v 1 2.7 -1.5
v 1 2.8 -1.3
v 1 2.8 -1.5
v 1 2.9 -1.3
v 1 2.9 -1.5
v 1 3 -1.3
v 1 3.2 -1.3
v 1 3.2 -1.5
v 0.9 2 -1
v 0.9 2 -1.1
v 0.9 2 -1.2
v 0.9 2 -1.3
v 0.9 2.1 -1
v 0.9 2.1 -1.1
v 0.9 2.1 -1.2
v 0.9 2.1 -1.3
v 0.9 2.2 -1.1
v 0.9 2.2 -1.3
v 0.9 2.3 -1.1
v 0.9 2.3 -1.2
v 0.9 2.3 -1.3
v 0.9 2.4 -1.1
v 0.9 2.4 -1.2
v 0.9 2.5 -1.1
v 0.9 2.5 -1.3
v 0.9 2.7 -1.3
v 0.9 2.7 -1.5
v 0.9 2.8 -1.3
v 0.9 2.8 -1.5
v 0.9 2.9 -1.3
v 0.9 2.9 -1.5
v 0.9 3 -1.3
v 0.9 3.2 -1.3
v 0.9 3.2 -1.5
v 1 3.7 -1.3
v 1 3.7 -1.4
v 1 3.8 -1
v 1 3.8 -1.1
v 1 3.8 -1.3
v 1 3.8 -1.4
v 1 3.9 -1
v 1 3.9 -1.3
v 1.1 3.1 -1.4
v 1.1 3.1 -1.5
v 1.1 3.2 -1.1
v 1.1 3.2 -1.2
v 1.1 3.2 -1.3
v 1.1 3.2 -1.4
v 1.1 3.2 -1.5
v 1.1 3.3 -1.1
v 1.1 3.3 -1.3
v 1.1 3.4 -1
v 1.1 3.4 -1.1
v 1.1 3.5 -1
v 1.1 3.5 -1.1
v 1.1 3.7 -1
v 1.1 3.7 -1.1
v 1.1 3.8 -1
v 1.1 3.8 -1.1
v 1.2 2 -1
v 1.2 2 -1.1
v 1.2 2 -1.2
v 1.2 2 -1.3
v 1.2 2.1 -1
v 1.2 2.1 -1.1
v 1.2 2.1 -1.2
v 1.2 2.1 -1.3
v 1.2 2.2 -1.1
v 1.2 2.2 -1.3
v 1.2 2.3 -1.1
v 1.2 2.3 -1.2
v 1.2 2.3 -1.3
v 1.2 2.4 -1.1
v 1.2 2.4 -1.2
v 1.2 2.5 -1.1
v 1.2 2.5 -1.3
v 1.2 2.6 -1.1
v 1.2 2.6 -1.3
v 1.2 2.7 -1.3
v 1.2 2.7 -1.5
v 1.2 2.8 -1.3
v 1.2 2.8 -1.5
v 1.2 2.9 -1.3
v 1.2 2.9 -1.5
v 1.2 3 -1.3
v 1.2 3.1 -1.3
v 1.2 3.1 -1.4
v 1.2 3.1 -1.5
v 1.2 3.2 -1.3
v 1.2 3.2 -1.4
v 1.2 3.3 -1.1
v 1.2 3.3 -1.3
v 1.2 3.5 -1
v 1.2 3.5 -1.1
v 1.2 3.5 -1.2
v 1.2 3.5 -1.3
v 1.2 3.6 -1
v 1.2 3.6 -1.1
v 1.2 3.6 -1.2
v 1.2 3.6 -1.3
v 1.2 3.6 -1.4
v 1.2 3.7 -1.1
v 1.2 3.7 -1.2
v 1.2 3.7 -1.3
v 1.2 3.7 -1.4
v 1.2 3.8 -1.1
v 1.2 3.8 -1.2
v 1.3 3.5 -1.2
v 1.3 3.5 -1.3
v 1.3 3.6 -1
v 1.3 3.6 -1.2
v 1.3 3.7 -1
v 1.3 3.7 -1.2
v 1.3 3.8 -1.2
v 1.3 3.8 -1.3
v 1.4 2.6 -1.1
v 1.4 2.6 -1.3
v 1.4 2.7 -1.1
v 1.4 2.7 -1.3
v 1.4 2.8 -1.1
v 1.4 2.8 -1.3
v 1.4 3.1 -1.1
v 1.4 3.1 -1.3
v 1.4 3.2 -1.1
v 1.4 3.2 -1.3
v 0.6 3.6 -1
v 0.6 3.7 -1
v 0.7 2 -1
v 0.7 2.1 -1
v 0.7 3.5 -1
v 0.7 3.6 -1
v 0.7 3.7 -1
v 0.8 3.4 -1
v 0.8 3.5 -1
v 0.8 3.7 -1
v 0.8 3.8 -1
v 0.9 2 -1
v 0.9 2.1 -1
v 0.9 3.8 -1
v 0.9 3.9 -1
v 1 2 -1
v 1 2.1 -1
v 1 3.8 -1
v 1 3.9 -1
v 1.1 3.4 -1
v 1.1 3.5 -1
v 1.1 3.7 -1
v 1.1 3.8 -1
v 1.2 2 -1
v 1.2 2.1 -1
v 1.2 3.5 -1
v 1.2 3.6 -1
v 1.2 3.7 -1
v 1.3 3.6 -1
v 1.3 3.7 -1
v 0.5 2.6 -1.1
v 0.5 2.7 -1.1
v 0.5 2.8 -1.1
v 0.5 3.1 -1.1
v 0.5 3.2 -1.1
v 0.6 3 -1.1
v 0.6 3.1 -1.1
v 0.6 3.2 -1.1
v 0.7 2.1 -1.1
v 0.7 2.2 -1.1
v 0.7 2.3 -1.1
v 0.7 2.4 -1.1
v 0.7 2.5 -1.1
v 0.7 2.6 -1.1
v 0.7 2.7 -1.1
v 0.7 2.8 -1.1
v 0.7 2.9 -1.1
v 0.7 3 -1.1
v 0.7 3.1 -1.1
v 0.7 3.2 -1.1
v 0.7 3.3 -1.1
v 0.7 3.5 -1.1
v 0.7 3.7 -1.1
v 0.7 3.8 -1.1
v 0.8 2.4 -1.1
v 0.8 2.5 -1.1
v 0.8 3 -1.1
v 0.8 3.1 -1.1
v 0.8 3.2 -1.1
v 0.8 3.3 -1.1
v 0.8 3.4 -1.1
v 0.8 3.5 -1.1
v 0.8 3.7 -1.1
v 0.8 3.8 -1.1
v 0.9 2.1 -1.1
v 0.9 2.2 -1.1
v 0.9 2.3 -1.1
v 0.9 2.4 -1.1
v 0.9 2.5 -1.1
v 0.9 2.6 -1.1
v 0.9 2.7 -1.1
v 0.9 2.8 -1.1
v 0.9 2.9 -1.1
v 0.9 3 -1.1
v 1 2.1 -1.1
v 1 2.2 -1.1
v 1 2.3 -1.1
v 1 2.4 -1.1
v 1 2.5 -1.1
v 1 2.6 -1.1
v 1 2.7 -1.1
v 1 2.8 -1.1
v 1 2.9 -1.1
v 1 3 -1.1
v 1.1 2.7 -1.1
v 1.1 2.8 -1.1
v 1.1 3 -1.1
v 1.1 3.1 -1.1
v 1.1 3.2 -1.1
v 1.1 3.3 -1.1
v 1.1 3.4 -1.1
v 1.1 3.5 -1.1
v 1.1 3.7 -1.1
v 1.1 3.8 -1.1
v 1.2 2.1 -1.1
v 1.2 2.2 -1.1
v 1.2 2.3 -1.1
v 1.2 2.4 -1.1
v 1.2 2.5 -1.1
v 1.2 2.6 -1.1
v 1.2 2.7 -1.1
v 1.2 2.8 -1.1
v 1.2 3 -1.1
v 1.2 3.1 -1.1
v 1.2 3.2 -1.1
v 1.2 3.3 -1.1
v 1.2 3.5 -1.1
v 1.2 3.7 -1.1
v 1.2 3.8 -1.1
v 1.3 3 -1.1
v 1.3 3.1 -1.1
v 1.3 3.2 -1.1
v 1.4 2.6 -1.1
v 1.4 2.7 -1.1
v 1.4 2.8 -1.1
v 1.4 3.1 -1.1
v 1.4 3.2 -1.1
v 0.6 3.5 -1.2
v 0.6 3.6 -1.2
v 0.6 3.7 -1.2
v 0.6 3.8 -1.2
v 0.7 3.5 -1.2
v 0.7 3.6 -1.2
v 0.7 3.7 -1.2
v 0.7 3.8 -1.2
v 1.2 3.5 -1.2
v 1.2 3.6 -1.2
v 1.2 3.7 -1.2
v 1.2 3.8 -1.2
v 1.3 3.5 -1.2
v 1.3 3.6 -1.2
v 1.3 3.7 -1.2
v 1.3 3.8 -1.2
v 0.5 2.6 -1.3
v 0.5 2.7 -1.3
v 0.5 2.8 -1.3
v 0.5 3.1 -1.3
v 0.5 3.2 -1.3
v 0.6 3 -1.3
v 0.6 3.1 -1.3
v 0.6 3.2 -1.3
v 0.6 3.5 -1.3
v 0.6 3.8 -1.3
v 0.7 2 -1.3
v 0.7 2.1 -1.3
v 0.7 2.2 -1.3
v 0.7 2.3 -1.3
v 0.7 2.4 -1.3
v 0.7 2.5 -1.3
v 0.7 2.6 -1.3
v 0.7 2.7 -1.3
v 0.7 2.8 -1.3
v 0.7 2.9 -1.3
v 0.7 3 -1.3
v 0.7 3.1 -1.3
v 0.7 3.2 -1.3
v 0.7 3.3 -1.3
v 0.7 3.5 -1.3
v 0.7 3.6 -1.3
v 0.7 3.7 -1.3
v 0.7 3.8 -1.3
v 0.8 2.4 -1.3
v 0.8 2.5 -1.3
v 0.8 3.2 -1.3
v 0.8 3.3 -1.3
v 0.9 2 -1.3
v 0.9 2.1 -1.3
v 0.9 2.2 -1.3
v 0.9 2.3 -1.3
v 0.9 2.5 -1.3
v 0.9 2.7 -1.3
v 0.9 2.8 -1.3
v 0.9 2.9 -1.3
v 0.9 3 -1.3
v 0.9 3.2 -1.3
v 0.9 3.7 -1.3
v 0.9 3.8 -1.3
v 0.9 3.9 -1.3
v 1 2 -1.3
v 1 2.1 -1.3
v 1 2.2 -1.3
v 1 2.3 -1.3
v 1 2.5 -1.3
v 1 2.7 -1.3
v 1 2.8 -1.3
v 1 2.9 -1.3
v 1 3 -1.3
v 1 3.2 -1.3
v 1 3.4 -1.3
v 1 3.5 -1.3
v 1 3.7 -1.3
v 1 3.8 -1.3
v 1 3.9 -1.3
v 1.1 2.5 -1.3
v 1.1 2.6 -1.3
v 1.1 3.2 -1.3
v 1.1 3.3 -1.3
v 1.1 3.4 -1.3
v 1.1 3.5 -1.3
v 1.1 3.7 -1.3
v 1.1 3.8 -1.3
v 1.2 2 -1.3
v 1.2 2.1 -1.3
v 1.2 2.2 -1.3
v 1.2 2.3 -1.3
v 1.2 2.5 -1.3
v 1.2 2.6 -1.3
v 1.2 2.7 -1.3
v 1.2 2.8 -1.3
v 1.2 2.9 -1.3
v 1.2 3 -1.3
v 1.2 3.1 -1.3
v 1.2 3.2 -1.3
v 1.2 3.3 -1.3
v 1.2 3.5 -1.3
v 1.2 3.6 -1.3
v 1.2 3.7 -1.3
v 1.2 3.8 -1.3
v 1.3 3 -1.3
v 1.3 3.1 -1.3
v 1.3 3.2 -1.3
v 1.3 3.5 -1.3
v 1.3 3.8 -1.3
v 1.4 2.6 -1.3
v 1.4 2.7 -1.3
v 1.4 2.8 -1.3
v 1.4 3.1 -1.3
v 1.4 3.2 -1.3
v 0.7 3.1 -1.4
v 0.7 3.2 -1.4
v 0.7 3.6 -1.4
v 0.7 3.7 -1.4
v 0.8 3.1 -1.4
v 0.8 3.2 -1.4
v 0.9 3.7 -1.4
v 0.9 3.8 -1.4
v 1 3.7 -1.4
v 1 3.8 -1.4
v 1.1 3.1 -1.4
v 1.1 3.2 -1.4
v 1.2 3.1 -1.4
v 1.2 3.2 -1.4
v 1.2 3.6 -1.4
v 1.2 3.7 -1.4
v 0.7 2.7 -1.5
v 0.7 2.8 -1.5
v 0.7 2.9 -1.5
v 0.7 3.1 -1.5
v 0.8 3.1 -1.5
v 0.8 3.2 -1.5
v 0.9 2.7 -1.5
v 0.9 2.8 -1.5
v 0.9 2.9 -1.5
v 0.9 3.2 -1.5
v 1 2.7 -1.5
v 1 2.8 -1.5
v 1 2.9 -1.5
v 1 3.2 -1.5
v 1.1 3.1 -1.5
v 1.1 3.2 -1.5
v 1.2 2.7 -1.5
v 1.2 2.8 -1.5
v 1.2 2.9 -1.5
v 1.2 3.1 -1.5
v 0.7 2 -1
v 0.9 2 -1
v 1 2 -1
v 1.2 2 -1
v 0.7 2 -1.1
v 0.9 2 -1.1
v 1 2 -1.1
v 1.2 2 -1.1
v 0.7 2 -1.2
v 0.9 2 -1.2
v 1 2 -1.2
v 1.2 2 -1.2
v 0.7 2 -1.3
v 0.9 2 -1.3
v 1 2 -1.3
v 1.2 2 -1.3
v 0.9 2.5 -1.1
v 1 2.5 -1.1
v 0.9 2.5 -1.3
v 1 2.5 -1.3
v 0.5 2.6 -1.1
v 0.7 2.6 -1.1
v 1.2 2.6 -1.1
v 1.4 2.6 -1.1
v 0.5 2.6 -1.3
v 0.7 2.6 -1.3
v 1.2 2.6 -1.3
v 1.4 2.6 -1.3
v 0.7 2.7 -1.3
v 0.9 2.7 -1.3
v 1 2.7 -1.3
v 1.2 2.7 -1.3
v 0.7 2.7 -1.5
v 0.9 2.7 -1.5
v 1 2.7 -1.5
v 1.2 2.7 -1.5
v 0.7 3.3 -1.1
v 0.8 3.3 -1.1
v 1.1 3.3 -1.1
v 1.2 3.3 -1.1
v 0.7 3.3 -1.3
v 0.8 3.3 -1.3
v 1.1 3.3 -1.3
v 1.2 3.3 -1.3
v 0.8 3.4 -1
v 1.1 3.4 -1
v 0.8 3.4 -1.1
v 1.1 3.4 -1.1
v 0.7 3.5 -1
v 0.8 3.5 -1
v 1.1 3.5 -1
v 1.2 3.5 -1
v 0.7 3.5 -1.1
v 0.8 3.5 -1.1
v 1.1 3.5 -1.1
v 1.2 3.5 -1.1
v 0.6 3.5 -1.2
v 0.7 3.5 -1.2
v 1.2 3.5 -1.2
v 1.3 3.5 -1.2
v 0.6 3.5 -1.3
v 0.7 3.5 -1.3
v 1.2 3.5 -1.3
v 1.3 3.5 -1.3
v 0.6 3.6 -1
v 0.7 3.6 -1
v 1.2 3.6 -1
v 1.3 3.6 -1
v 0.7 3.6 -1.1
v 1.2 3.6 -1.1
v 0.6 3.6 -1.2
v 0.7 3.6 -1.2
v 1.2 3.6 -1.2
v 1.3 3.6 -1.2
v 0.7 3.6 -1.3
v 1.2 3.6 -1.3
v 0.7 3.6 -1.4
v 1.2 3.6 -1.4
v 0.7 2.1 -1
v 0.9 2.1 -1
v 1 2.1 -1
v 1.2 2.1 -1
v 0.7 2.1 -1.1
v 0.9 2.1 -1.1
v 1 2.1 -1.1
v 1.2 2.1 -1.1
v 0.7 3.1 -1.4
v 0.8 3.1 -1.4
v 1.1 3.1 -1.4
v 1.2 3.1 -1.4
v 0.7 3.1 -1.5
v 0.8 3.1 -1.5
v 1.1 3.1 -1.5
v 1.2 3.1 -1.5
v 0.5 3.2 -1.1
v 0.6 3.2 -1.1
v 0.7 3.2 -1.1
v 0.8 3.2 -1.1
v 1.1 3.2 -1.1
v 1.2 3.2 -1.1
v 1.3 3.2 -1.1
v 1.4 3.2 -1.1
v 0.7 3.2 -1.2
v 0.8 3.2 -1.2
v 1.1 3.2 -1.2
v 1.2 3.2 -1.2
v 0.5 3.2 -1.3
v 0.6 3.2 -1.3
v 0.7 3.2 -1.3
v 0.8 3.2 -1.3
v 0.9 3.2 -1.3
v 1 3.2 -1.3
v 1.1 3.2 -1.3
v 1.2 3.2 -1.3
v 1.3 3.2 -1.3
v 1.4 3.2 -1.3
v 0.7 3.2 -1.4
v 0.8 3.2 -1.4
v 1.1 3.2 -1.4
v 1.2 3.2 -1.4
v 0.8 3.2 -1.5
v 0.9 3.2 -1.5
v 1 3.2 -1.5
v 1.1 3.2 -1.5
v 0.6 3.7 -1
v 0.7 3.7 -1
v 0.8 3.7 -1
v 1.1 3.7 -1
v 1.2 3.7 -1
v 1.3 3.7 -1
v 0.7 3.7 -1.1
v 0.8 3.7 -1.1
v 1.1 3.7 -1.1
v 1.2 3.7 -1.1
v 0.6 3.7 -1.2
v 0.7 3.7 -1.2
v 1.2 3.7 -1.2
v 1.3 3.7 -1.2
v 0.7 3.7 -1.3
v 0.9 3.7 -1.3
v 1 3.7 -1.3
v 1.1 3.7 -1.3
v 1.2 3.7 -1.3
v 0.7 3.7 -1.4
v 0.9 3.7 -1.4
v 1 3.7 -1.4
v 1.2 3.7 -1.4
v 0.8 3.8 -1
v 0.9 3.8 -1
v 1 3.8 -1
v 1.1 3.8 -1
v 0.7 3.8 -1.1
v 0.8 3.8 -1.1
v 0.9 3.8 -1.1
v 1 3.8 -1.1
v 1.1 3.8 -1.1
v 1.2 3.8 -1.1
v 0.6 3.8 -1.2
v 0.7 3.8 -1.2
v 1.1 3.8 -1.2
v 1.2 3.8 -1.2
v 1.3 3.8 -1.2
v 0.6 3.8 -1.3
v 0.7 3.8 -1.3
v 0.9 3.8 -1.3
v 1 3.8 -1.3
v 1.1 3.8 -1.3
v 1.2 3.8 -1.3
v 1.3 3.8 -1.3
v 0.9 3.8 -1.4
v 1 3.8 -1.4
v 0.9 3.9 -1
v 1 3.9 -1
v 0.9 3.9 -1.3
v 1 3.9 -1.3

# faces
f 3/4/1 2/4/1 1/4/1
f 4/4/1 2/4/1 3/4/1
f 5/6/1 4/6/1 3/6/1
f 6/6/1 4/6/1 5/6/1
f 7/4/1 6/4/1 5/4/1
f 8/4/1 6/4/1 7/4/1
f 9/6/1 8/6/1 7/6/1
f 10/6/1 8/6/1 9/6/1
f 14/1/1 12/1/1 11/1/1
f 15/1/1 14/1/1 13/1/1
f 16/1/1 12/1/1 14/1/1
f 16/1/1 14/1/1 15/1/1
f 17/1/1 12/1/1 16/1/1
f 18/1/1 12/1/1 17/1/1
f 23/6/1 20/6/1 19/6/1
f 24/5/1 21/5/1 20/5/1
f 24/6/1 20/6/1 23/6/1
f 25/6/1 22/6/1 21/6/1
f 25/5/1 21/5/1 24/5/1
f 26/6/1 22/6/1 25/6/1
f 27/3/1 25/3/1 24/3/1
f 27/3/1 26/3/1 25/3/1
f 28/3/1 26/3/1 27/3/1
f 29/6/1 28/6/1 27/6/1
f 30/6/1 28/6/1 29/6/1
f 31/6/1 28/6/1 30/6/1
f 32/4/1 30/4/1 29/4/1
f 33/3/1 31/3/1 30/3/1
f 33/4/1 30/4/1 32/4/1
f 34/3/1 31/3/1 33/3/1
f 35/2/1 33/2/1 32/2/1
f 35/2/1 34/2/1 33/2/1
f 36/2/1 34/2/1 35/2/1
f 37/3/1 36/3/1 35/3/1
f 38/3/1 36/3/1 37/3/1
f 41/5/1 40/5/1 39/5/1
f 42/5/1 40/5/1 41/5/1
f 43/1/1 42/1/1 41/1/1
f 44/1/1 42/1/1 43/1/1
f 45/5/1 44/5/1 43/5/1
f 46/5/1 44/5/1 45/5/1
f 47/5/1 44/5/1 46/5/1
f 48/5/1 44/5/1 47/5/1
f 49/1/1 47/1/1 46/1/1
f 50/1/1 47/1/1 49/1/1
f 54/3/1 52/3/1 51/3/1
f 55/3/1 52/3/1 54/3/1
f 56/3/1 52/3/1 55/3/1
f 57/5/1 54/5/1 53/5/1
f 58/3/1 55/3/1 54/3/1
f 58/5/1 54/5/1 57/5/1
f 59/3/1 55/3/1 58/3/1
f 64/1/1 61/1/1 60/1/1
f 65/1/1 61/1/1 64/1/1
f 66/3/1 63/3/1 62/3/1
f 67/3/1 63/3/1 66/3/1
f 73/5/1 69/5/1 68/5/1
f 74/5/1 69/5/1 73/5/1
f 75/3/1 72/3/1 71/3/1
f 75/3/1 71/3/1 70/3/1
f 76/3/1 72/3/1 75/3/1
f 79/5/1 78/5/1 77/5/1
f 80/5/1 78/5/1 79/5/1
f 83/5/1 82/5/1 81/5/1
f 84/5/1 82/5/1 83/5/1
f 89/1/1 86/1/1 85/1/1
f 90/1/1 86/1/1 89/1/1
f 91/1/1 88/1/1 87/1/1
f 91/1/1 89/1/1 88/1/1
f 92/1/1 89/1/1 91/1/1
f 97/6/1 94/6/1 93/6/1
f 98/5/1 95/5/1 94/5/1
f 98/6/1 94/6/1 97/6/1
f 99/6/1 96/6/1 95/6/1
f 99/5/1 95/5/1 98/5/1
f 100/6/1 96/6/1 99/6/1
f 101/3/1 99/3/1 98/3/1
f 101/3/1 100/3/1 99/3/1
f 102/3/1 100/3/1 101/3/1
f 103/6/1 102/6/1 101/6/1
f 104/6/1 102/6/1 103/6/1
f 105/6/1 102/6/1 104/6/1
f 106/4/1 104/4/1 103/4/1
f 107/3/1 105/3/1 104/3/1
f 107/4/1 104/4/1 106/4/1
f 108/3/1 107/3/1 106/3/1
f 109/3/1 105/3/1 107/3/1
f 109/3/1 107/3/1 108/3/1
f 112/5/1 111/5/1 110/5/1
f 113/5/1 111/5/1 112/5/1
f 114/1/1 113/1/1 112/1/1
f 115/1/1 113/1/1 114/1/1
f 116/5/1 115/5/1 114/5/1
f 117/5/1 115/5/1 116/5/1
f 118/5/1 115/5/1 117/5/1
f 119/6/2 120/6/2 123/6/2
f 120/5/2 121/5/2 124/5/2
f 123/6/2 120/6/2 124/6/2
f 121/6/2 122/6/2 125/6/2
f 124/5/2 121/5/2 125/5/2
f 125/6/2 122/6/2 126/6/2
f 124/3/2 125/3/2 127/3/2
f 125/3/2 126/3/2 127/3/2
f 127/3/2 126/3/2 128/3/2
f 127/6/2 128/6/2 129/6/2
f 129/6/2 128/6/2 130/6/2
f 130/6/2 128/6/2 131/6/2
f 129/4/2 130/4/2 132/4/2
f 130/3/2 131/3/2 133/3/2
f 132/4/2 130/4/2 133/4/2
f 132/3/2 133/3/2 134/3/2
f 133/3/2 131/3/2 135/3/2
f 134/3/2 133/3/2 135/3/2
f 136/5/2 137/5/2 138/5/2
f 138/5/2 137/5/2 139/5/2
f 138/1/2 139/1/2 140/1/2
f 140/1/2 139/1/2 141/1/2
f 140/5/2 141/5/2 142/5/2
f 142/5/2 141/5/2 143/5/2
f 143/5/2 141/5/2 144/5/2
f 145/1/2 146/1/2 149/1/2
f 149/1/2 146/1/2 150/1/2
f 147/1/2 148/1/2 151/1/2
f 148/1/2 149/1/2 151/1/2
f 151/1/2 149/1/2 152/1/2
f 153/5/2 154/5/2 158/5/2
f 158/5/2 154/5/2 159/5/2
f 156/3/2 157/3/2 160/3/2
f 155/3/2 156/3/2 160/3/2
f 160/3/2 157/3/2 161/3/2
f 162/5/2 163/5/2 164/5/2
f 164/5/2 163/5/2 165/5/2
f 166/5/2 167/5/2 168/5/2
f 168/5/2 167/5/2 169/5/2
f 170/6/2 171/6/2 174/6/2
f 171/5/2 172/5/2 175/5/2
f 174/6/2 171/6/2 175/6/2
f 172/6/2 173/6/2 176/6/2
f 175/5/2 172/5/2 176/5/2
f 176/6/2 173/6/2 177/6/2
f 175/3/2 176/3/2 178/3/2
f 176/3/2 177/3/2 178/3/2
f 178/3/2 177/3/2 179/3/2
f 178/6/2 179/6/2 180/6/2
f 180/6/2 179/6/2 181/6/2
f 181/6/2 179/6/2 182/6/2
f 180/4/2 181/4/2 183/4/2
f 181/3/2 182/3/2 184/3/2
f 183/4/2 181/4/2 184/4/2
f 183/3/2 184/3/2 185/3/2
f 184/3/2 182/3/2 186/3/2
f 185/3/2 184/3/2 186/3/2
f 185/2/2 186/2/2 187/2/2
f 187/2/2 186/2/2 188/2/2
f 189/5/2 190/5/2 191/5/2
f 191/5/2 190/5/2 192/5/2
f 191/1/2 192/1/2 193/1/2
f 193/1/2 192/1/2 194/1/2
f 193/5/2 194/5/2 195/5/2
f 195/5/2 194/5/2 196/5/2
f 196/5/2 194/5/2 197/5/2
f 197/5/2 194/5/2 198/5/2
f 196/1/2 197/1/2 199/1/2
f 199/1/2 197/1/2 200/1/2
f 201/3/2 202/3/2 204/3/2
f 204/3/2 202/3/2 205/3/2
f 205/3/2 202/3/2 206/3/2
f 203/5/2 204/5/2 207/5/2
f 204/2/2 205/2/2 208/2/2
f 207/5/2 204/5/2 208/5/2
f 208/2/2 205/2/2 209/2/2
f 210/1/2 211/1/2 214/1/2
f 214/1/2 211/1/2 215/1/2
f 212/3/2 213/3/2 216/3/2
f 216/3/2 213/3/2 217/3/2
f 218/1/2 219/1/2 221/1/2
f 220/1/2 221/1/2 222/1/2
f 221/1/2 219/1/2 223/1/2
f 222/1/2 221/1/2 223/1/2
f 223/1/2 219/1/2 224/1/2
f 224/1/2 219/1/2 225/1/2
f 226/4/2 227/4/2 228/4/2
f 228/4/2 227/4/2 229/4/2
f 228/6/2 229/6/2 230/6/2
f 230/6/2 229/6/2 231/6/2
f 230/4/2 231/4/2 232/4/2
f 232/4/2 231/4/2 233/4/2
f 232/6/2 233/6/2 234/6/2
f 234/6/2 233/6/2 235/6/2
f 241/1/3 237/1/3 236/1/3
f 242/1/3 237/1/3 241/1/3
f 244/5/3 241/5/3 240/5/3
f 244/5/3 242/5/3 241/5/3
f 245/5/3 242/5/3 244/5/3
f 247/6/3 239/6/3 238/6/3
f 248/6/3 239/6/3 247/6/3
f 249/5/3 246/5/3 245/5/3
f 253/1/3 250/1/3 249/1/3
f 253/5/3 249/5/3 245/5/3
f 254/1/3 250/1/3 253/1/3
f 255/5/3 244/5/3 243/5/3
f 256/1/3 245/1/3 244/1/3
f 256/5/3 244/5/3 255/5/3
f 257/5/3 253/5/3 245/5/3
f 257/1/3 245/1/3 256/1/3
f 258/5/3 253/5/3 257/5/3
f 259/6/3 252/6/3 251/6/3
f 260/6/3 252/6/3 259/6/3
f 261/5/3 257/5/3 256/5/3
f 262/5/3 257/5/3 261/5/3
f 263/5/3 257/5/3 262/5/3
f 264/1/3 263/1/3 262/1/3
f 265/1/3 263/1/3 264/1/3
f 271/4/3 269/4/3 268/4/3
f 272/6/3 270/6/3 269/6/3
f 272/4/3 269/4/3 271/4/3
f 273/6/3 270/6/3 272/6/3
f 279/4/3 267/4/3 266/4/3
f 280/6/3 268/6/3 267/6/3
f 280/4/3 267/4/3 279/4/3
f 281/4/3 271/4/3 268/4/3
f 281/6/3 268/6/3 280/6/3
f 282/4/3 271/4/3 281/4/3
f 283/6/3 272/6/3 271/6/3
f 283/4/3 271/4/3 282/4/3
f 284/3/3 273/3/3 272/3/3
f 284/6/3 272/6/3 283/6/3
f 285/3/3 273/3/3 284/3/3
f 290/2/3 278/2/3 277/2/3
f 290/4/3 277/4/3 276/4/3
f 291/3/3 279/3/3 278/3/3
f 291/2/3 278/2/3 290/2/3
f 292/3/3 283/3/3 282/3/3
f 292/3/3 284/3/3 283/3/3
f 293/2/3 285/2/3 284/2/3
f 293/3/3 284/3/3 292/3/3
f 294/2/3 285/2/3 293/2/3
f 295/3/3 287/3/3 286/3/3
f 296/3/3 287/3/3 295/3/3
f 297/3/3 287/3/3 296/3/3
f 298/3/3 289/3/3 288/3/3
f 299/3/3 289/3/3 298/3/3
f 300/3/3 275/3/3 274/3/3
f 301/6/3 276/6/3 275/6/3
f 301/3/3 275/3/3 300/3/3
f 302/4/3 290/4/3 276/4/3
f 302/6/3 276/6/3 301/6/3
f 303/3/3 291/3/3 290/3/3
f 303/4/3 290/4/3 302/4/3
f 304/3/3 279/3/3 291/3/3
f 304/3/3 291/3/3 303/3/3
f 305/6/3 280/6/3 279/6/3
f 305/3/3 279/3/3 304/3/3
f 306/3/3 281/3/3 280/3/3
f 306/6/3 280/6/3 305/6/3
f 307/2/3 282/2/3 281/2/3
f 307/3/3 281/3/3 306/3/3
f 308/3/3 292/3/3 282/3/3
f 308/2/3 282/2/3 307/2/3
f 309/2/3 293/2/3 292/2/3
f 309/3/3 292/3/3 308/3/3
f 314/3/3 305/3/3 304/3/3
f 315/5/3 306/5/3 305/5/3
f 315/3/3 305/3/3 314/3/3
f 316/3/3 307/3/3 306/3/3
f 316/5/3 306/5/3 315/5/3
f 316/3/3 308/3/3 307/3/3
f 317/3/3 308/3/3 316/3/3
f 318/4/3 309/4/3 308/4/3
f 318/3/3 308/3/3 317/3/3
f 319/2/3 293/2/3 309/2/3
f 319/4/3 309/4/3 318/4/3
f 320/2/3 317/2/3 316/2/3
f 320/6/3 316/6/3 315/6/3
f 321/3/3 318/3/3 317/3/3
f 321/2/3 317/2/3 320/2/3
f 321/3/3 319/3/3 318/3/3
f 322/2/3 293/2/3 319/2/3
f 322/3/3 319/3/3 321/3/3
f 323/3/3 296/3/3 295/3/3
f 323/2/3 293/2/3 322/2/3
f 323/3/3 294/3/3 293/3/3
f 323/3/3 295/3/3 294/3/3
f 324/3/3 296/3/3 323/3/3
f 325/3/3 296/3/3 324/3/3
f 326/3/3 296/3/3 325/3/3
f 330/3/3 311/3/3 310/3/3
f 331/6/3 312/6/3 311/6/3
f 331/3/3 311/3/3 330/3/3
f 332/4/3 313/4/3 312/4/3
f 332/6/3 312/6/3 331/6/3
f 333/3/3 314/3/3 313/3/3
f 333/4/3 313/4/3 332/4/3
f 334/2/3 315/2/3 314/2/3
f 334/3/3 314/3/3 333/3/3
f 335/6/3 320/6/3 315/6/3
f 335/2/3 315/2/3 334/2/3
f 336/3/3 321/3/3 320/3/3
f 336/6/3 320/6/3 335/6/3
f 336/3/3 322/3/3 321/3/3
f 336/3/3 323/3/3 322/3/3
f 337/3/3 323/3/3 336/3/3
f 338/3/3 323/3/3 337/3/3
f 339/2/3 324/2/3 323/2/3
f 339/3/3 323/3/3 338/3/3
f 340/2/3 324/2/3 339/2/3
f 341/3/3 326/3/3 325/3/3
f 341/3/3 327/3/3 326/3/3
f 342/3/3 327/3/3 341/3/3
f 343/3/3 329/3/3 328/3/3
f 344/3/3 329/3/3 343/3/3
f 345/4/3 338/4/3 337/4/3
f 345/6/3 339/6/3 338/6/3
f 346/3/3 340/3/3 339/3/3
f 346/6/3 339/6/3 345/6/3
f 347/3/3 340/3/3 346/3/3
f 348/4/3 336/4/3 335/4/3
f 349/6/3 337/6/3 336/6/3
f 349/4/3 336/4/3 348/4/3
f 350/4/3 345/4/3 337/4/3
f 350/6/3 337/6/3 349/6/3
f 350/4/3 346/4/3 345/4/3
f 351/6/3 347/6/3 346/6/3
f 351/4/3 346/4/3 350/4/3
f 352/6/3 347/6/3 351/6/3
f 357/1/3 354/1/3 353/1/3
f 358/1/3 354/1/3 357/1/3
f 359/1/3 356/1/3 355/1/3
f 360/1/3 356/1/3 359/1/3
f 365/1/3 362/1/3 361/1/3
f 366/1/3 362/1/3 365/1/3
f 367/1/3 364/1/3 363/1/3
f 368/1/3 364/1/3 367/1/3
f 371/4/4 372/4/4 374/4/4
f 372/6/4 373/6/4 375/6/4
f 374/4/4 372/4/4 375/4/4
f 375/6/4 373/6/4 376/6/4
f 369/4/4 370/4/4 385/4/4
f 370/6/4 371/6/4 386/6/4
f 385/4/4 370/4/4 386/4/4
f 371/4/4 374/4/4 387/4/4
f 386/6/4 371/6/4 387/6/4
f 387/4/4 374/4/4 388/4/4
f 374/6/4 375/6/4 389/6/4
f 388/4/4 374/4/4 389/4/4
f 375/3/4 376/3/4 390/3/4
f 389/6/4 375/6/4 390/6/4
f 390/3/4 376/3/4 391/3/4
f 377/1/4 378/1/4 393/1/4
f 393/1/4 378/1/4 394/1/4
f 394/1/4 378/1/4 395/1/4
f 395/1/4 378/1/4 396/1/4
f 383/2/4 384/2/4 397/2/4
f 382/3/4 383/3/4 397/3/4
f 384/3/4 385/3/4 398/3/4
f 397/2/4 384/2/4 398/2/4
f 393/3/4 394/3/4 400/3/4
f 392/3/4 393/3/4 400/3/4
f 379/6/4 380/6/4 401/6/4
f 380/3/4 381/3/4 402/3/4
f 401/6/4 380/6/4 402/6/4
f 381/6/4 382/6/4 403/6/4
f 402/3/4 381/3/4 403/3/4
f 382/3/4 397/3/4 404/3/4
f 403/6/4 382/6/4 404/6/4
f 397/3/4 398/3/4 404/3/4
f 398/3/4 385/3/4 405/3/4
f 404/3/4 398/3/4 405/3/4
f 385/6/4 386/6/4 406/6/4
f 399/3/4 400/3/4 410/3/4
f 395/3/4 396/3/4 411/3/4
f 411/3/4 396/3/4 412/3/4
f 405/3/4 385/3/4 418/3/4
f 407/3/4 408/3/4 419/3/4
f 385/6/4 406/6/4 419/6/4
f 406/3/4 407/3/4 419/3/4
f 419/3/4 408/3/4 420/3/4
f 408/2/4 409/2/4 421/2/4
f 420/3/4 408/3/4 421/3/4
f 409/3/4 410/3/4 422/3/4
f 421/2/4 409/2/4 422/2/4
f 410/3/4 400/3/4 423/3/4
f 422/3/4 410/3/4 423/3/4
f 400/3/4 394/3/4 424/3/4
f 423/3/4 400/3/4 424/3/4
f 424/3/4 394/3/4 425/3/4
f 412/1/4 413/1/4 427/1/4
f 427/1/4 413/1/4 428/1/4
f 417/3/4 418/3/4 429/3/4
f 418/3/4 385/3/4 429/3/4
f 385/6/4 419/6/4 430/6/4
f 429/3/4 385/3/4 430/3/4
f 423/3/4 424/3/4 431/3/4
f 431/3/4 424/3/4 432/3/4
f 424/2/4 425/2/4 433/2/4
f 432/3/4 424/3/4 433/3/4
f 425/3/4 394/3/4 434/3/4
f 433/2/4 425/2/4 434/2/4
f 426/3/4 427/3/4 435/3/4
f 435/3/4 427/3/4 436/3/4
f 414/6/4 415/6/4 437/6/4
f 415/3/4 416/3/4 438/3/4
f 437/6/4 415/6/4 438/6/4
f 416/6/4 417/6/4 439/6/4
f 438/3/4 416/3/4 439/3/4
f 417/3/4 429/3/4 440/3/4
f 439/6/4 417/6/4 440/6/4
f 429/2/4 430/2/4 441/2/4
f 440/3/4 429/3/4 441/3/4
f 430/6/4 419/6/4 442/6/4
f 441/2/4 430/2/4 442/2/4
f 442/6/4 419/6/4 443/6/4
f 432/3/4 433/3/4 449/3/4
f 433/3/4 434/3/4 449/3/4
f 434/3/4 394/3/4 450/3/4
f 449/3/4 434/3/4 450/3/4
f 450/3/4 394/3/4 451/3/4
f 435/2/4 436/2/4 452/2/4
f 452/2/4 436/2/4 453/2/4
f 446/6/4 447/6/4 454/6/4
f 445/4/4 446/4/4 454/4/4
f 444/4/4 445/4/4 454/4/4
f 447/3/4 448/3/4 455/3/4
f 454/6/4 447/6/4 455/6/4
f 455/3/4 448/3/4 456/3/4
f 452/1/4 453/1/4 457/1/4
f 451/1/4 452/1/4 457/1/4
f 450/1/4 451/1/4 457/1/4
f 457/1/4 453/1/4 458/1/4
f 442/4/4 443/4/4 459/4/4
f 443/6/4 444/6/4 460/6/4
f 459/4/4 443/4/4 460/4/4
f 444/4/4 454/4/4 461/4/4
f 460/6/4 444/6/4 461/6/4
f 454/4/4 455/4/4 461/4/4
f 455/6/4 456/6/4 462/6/4
f 461/4/4 455/4/4 462/4/4
f 462/6/4 456/6/4 463/6/4
f 464/1/4 465/1/4 468/1/4
f 468/1/4 465/1/4 469/1/4
f 466/1/4 467/1/4 470/1/4
f 466/1/4 470/1/4 472/1/4
f 470/1/4 471/1/4 472/1/4
f 472/1/4 471/1/4 473/1/4
f 474/1/4 475/1/4 476/1/4
f 476/1/4 475/1/4 477/1/4
f 466/1/4 472/1/4 478/1/4
f 478/1/4 472/1/4 479/1/4
f 482/5/4 483/5/4 484/5/4
f 480/5/4 481/5/4 486/5/4
f 481/1/4 482/1/4 487/1/4
f 486/5/4 481/5/4 487/5/4
f 484/5/4 485/5/4 488/5/4
f 487/1/4 482/1/4 488/1/4
f 482/5/4 484/5/4 488/5/4
f 488/5/4 485/5/4 489/5/4
f 492/5/4 493/5/4 494/5/4
f 494/5/4 493/5/4 495/5/4
f 490/5/4 491/5/4 496/5/4
f 491/1/4 492/1/4 497/1/4
f 496/5/4 491/5/4 497/5/4
f 492/5/4 494/5/4 498/5/4
f 497/1/4 492/1/4 498/1/4
f 498/5/4 494/5/4 499/5/4
f 504/6/5 501/6/5 500/6/5
f 505/6/5 501/6/5 504/6/5
f 506/6/5 503/6/5 502/6/5
f 507/6/5 503/6/5 506/6/5
f 508/5/5 505/5/5 504/5/5
f 509/5/5 505/5/5 508/5/5
f 510/5/5 507/5/5 506/5/5
f 511/5/5 507/5/5 510/5/5
f 512/6/5 509/6/5 508/6/5
f 513/6/5 509/6/5 512/6/5
f 514/6/5 511/6/5 510/6/5
f 515/6/5 511/6/5 514/6/5
f 518/3/5 517/3/5 516/3/5
f 519/3/5 517/3/5 518/3/5
f 524/4/5 521/4/5 520/4/5
f 525/4/5 521/4/5 524/4/5
f 526/4/5 523/4/5 522/4/5
f 527/4/5 523/4/5 526/4/5
f 532/5/5 529/5/5 528/5/5
f 533/5/5 529/5/5 532/5/5
f 534/5/5 531/5/5 530/5/5
f 535/5/5 531/5/5 534/5/5
f 540/3/5 537/3/5 536/3/5
f 541/3/5 537/3/5 540/3/5
f 542/3/5 539/3/5 538/3/5
f 543/3/5 539/3/5 542/3/5
f 546/5/5 545/5/5 544/5/5
f 547/5/5 545/5/5 546/5/5
f 552/5/5 549/5/5 548/5/5
f 553/5/5 549/5/5 552/5/5
f 554/5/5 551/5/5 550/5/5
f 555/5/5 551/5/5 554/5/5
f 560/1/5 557/1/5 556/1/5
f 561/1/5 557/1/5 560/1/5
f 562/1/5 559/1/5 558/1/5
f 563/1/5 559/1/5 562/1/5
f 568/1/5 565/1/5 564/1/5
f 569/1/5 567/1/5 566/1/5
f 570/1/5 568/1/5 564/1/5
f 571/1/5 568/1/5 570/1/5
f 572/1/5 567/1/5 569/1/5
f 573/1/5 567/1/5 572/1/5
f 576/1/5 575/1/5 574/1/5
f 577/1/5 575/1/5 576/1/5
f 578/6/6 579/6/6 582/6/6
f 582/6/6 579/6/6 583/6/6
f 580/6/6 581/6/6 584/6/6
f 584/6/6 581/6/6 585/6/6
f 586/5/6 587/5/6 590/5/6
f 590/5/6 587/5/6 591/5/6
f 588/5/6 589/5/6 592/5/6
f 592/5/6 589/5/6 593/5/6
f 595/3/6 596/3/6 602/3/6
f 596/2/6 597/2/6 602/2/6
f 602/2/6 597/2/6 603/2/6
f 598/2/6 599/2/6 604/2/6
f 599/3/6 600/3/6 605/3/6
f 604/2/6 599/2/6 605/2/6
f 594/6/6 595/6/6 606/6/6
f 602/3/6 603/3/6 607/3/6
f 606/6/6 595/6/6 607/6/6
f 595/3/6 602/3/6 607/3/6
f 607/3/6 603/3/6 608/3/6
f 608/3/6 603/3/6 609/3/6
f 604/3/6 605/3/6 612/3/6
f 605/3/6 600/3/6 613/3/6
f 612/3/6 605/3/6 613/3/6
f 600/6/6 601/6/6 614/6/6
f 613/3/6 600/3/6 614/3/6
f 614/6/6 601/6/6 615/6/6
f 608/1/6 609/1/6 616/1/6
f 609/5/6 610/5/6 617/5/6
f 616/1/6 609/1/6 617/1/6
f 611/5/6 612/5/6 618/5/6
f 612/1/6 613/1/6 618/1/6
f 618/1/6 613/1/6 619/1/6
f 617/5/6 610/5/6 620/5/6
f 620/5/6 610/5/6 621/5/6
f 611/5/6 618/5/6 622/5/6
f 622/5/6 618/5/6 623/5/6
f 624/1/6 625/1/6 630/1/6
f 625/5/6 626/5/6 630/5/6
f 630/5/6 626/5/6 631/5/6
f 627/5/6 628/5/6 632/5/6
f 628/1/6 629/1/6 633/1/6
f 632/5/6 628/5/6 633/5/6
f 624/1/6 630/1/6 634/1/6
f 634/1/6 630/1/6 635/1/6
f 633/1/6 629/1/6 636/1/6
f 636/1/6 629/1/6 637/1/6
f 638/1/6 639/1/6 643/1/6
f 643/1/6 639/1/6 644/1/6
f 641/1/6 642/1/6 645/1/6
f 640/1/6 641/1/6 645/1/6
f 645/1/6 642/1/6 646/1/6
f 647/5/6 648/5/6 652/5/6
f 652/5/6 648/5/6 653/5/6
f 649/5/6 650/5/6 654/5/6
f 654/5/6 650/5/6 655/5/6
f 652/3/6 653/3/6 658/3/6
f 651/3/6 652/3/6 658/3/6
f 655/3/6 656/3/6 659/3/6
f 654/3/6 655/3/6 659/3/6
f 659/3/6 656/3/6 660/3/6
f 657/1/6 658/1/6 662/1/6
f 658/3/6 653/3/6 663/3/6
f 662/1/6 658/1/6 663/1/6
f 663/3/6 653/3/6 664/3/6
f 654/3/6 659/3/6 665/3/6
f 659/2/6 660/2/6 666/2/6
f 665/3/6 659/3/6 666/3/6
f 660/1/6 661/1/6 667/1/6
f 666/2/6 660/2/6 667/2/6
f 667/1/6 661/1/6 668/1/6
f 664/1/6 665/1/6 669/1/6
f 669/1/6 665/1/6 670/1/6
f 671/1/6 672/1/6 673/1/6
f 673/1/6 672/1/6 674/1/6
